<?xml version="1.0" encoding="UTF-8"?>
<svg version="1.1" viewBox="0 0 2048 2048" width="512" height="512" xmlns="http://www.w3.org/2000/svg">
<path transform="translate(934,128)" d="m0 0 5 1v23l2 40 4 38 6 38 7 34 9 35 12 36 10 25 14 29 9 16 3 3 24 4 65 10 64 11 68 13 65 15 49 13 38 12 36 13 43 18 33 15 19 9 14 7 11 6 27 15 24 14 19 12 22 14 36 26 18 14 16 13 15 13 10 9 12 11 29 29 7 8 12 14 14 18 12 18 12 19 2 5-9 2-117 15-68 10-78 13-64 12-65 13-64 14-52 12-62 15-42 11 2 11 6 28 8 45 6 43 4 40 2 28 1 22v89l-2 34-3 36-5 40-7 45-9 44-10 42-12 42-17 52-17 45-12 28-18 39-17 34-13 23-12 21-12 19-13 19-5 5h-20l-46-1-59-3-38-3-40-4-33-4-49-7-41-7-44-9-52-12-33-9-40-12-41-14-33-13-30-13-37-18-23-13-24-15-17-12-16-13-8-7-10-9-18-18-11-14-9-13-8-14-7-14-8-24-3-16-1-7v-32l3-20 7-25 8-20 10-19 10-17 12-17 10-13 10-12 7-8 13-15 26-26 8-7 10-9 14-11 17-14 9-9 8-7 29-29 8-7 25-25h2v-2l8-7 19-19 3-4h2l2-4 29-29 7-8 7-7 9-11 11-12 9-11 14-17 16-21 11-16 12-18 15-25 11-20 15-33 9-25 7-26 5-24 3-27v-51l-3-39-4-29-7-34-7-25-7-21-10-24-13-26-14-23-13-18-11-14-9-10-7-8-9-10-12-12v-2h-2l-7-8-21-21-7-8-10-11-11-14-10-14-12-20-6-12-2-6-2-12v-8l3-16 8-16 9-12 9-10 7-7 17-13 15-10 21-12 28-14 28-12 26-10 34-12 37-12 52-15 64-16 41-9zm-42 52-47 11-38 10-41 12-32 10-42 15-18 7 3 2 49 10 63 12 78 14 41 7h3l-1-8-7-43-4-36-2-23zm-286 98-14 8-17 13-11 10-7 10-3 8v11l4 6 7 7 18 12 19 8 27 9 52 13 14 3h5l-6-7-11-13-9-11-12-15-11-14-16-21-13-18-12-17zm62 10 3 5 20 26 14 17 8 10 12 14 10 11 7 8 9 10 14 14 5 3 16-8 25-14 21-13 20-14 14-11 16-13 3-4-9-2-66-12-34-6-72-14-32-7zm256 63-10 10-11 9-14 12-19 14-15 10-13 8-6 3 1 3 15 3 60 9 45 7h3l-2-6-8-17-11-28-10-29-2-8zm-307 69 6 7 20 20 7 8 11 12 9 11 12 15 13 19 10 15 13 23 7 15 4-1 15-15 8-7 14-12 13-11 14-11 18-14 17-12 18-12 5-3v-2l-27-4-70-11-67-13-44-10-23-7zm341 61 10 28 7 28 4 27 2 25v26l7-4 23-15 17-11 28-17 20-12 25-14 23-13 30-15-1-2-43-8-76-12-68-10zm-50 1-21 12-21 13-19 13-19 14-14 11-11 9-28 24-4 3v2l9 3 36 8 39 10 44 13 36 12h3l1-9v-38l-2-21-5-27-6-20-10-24-5-8zm332 47-3 8-9 31-11 33-11 28-12 28-12 26-5 11 9-3 31-13 58-22 32-11 30-10 38-12 50-14 31-8 3-2-10-5-31-13-34-13-46-15-49-13-46-11zm-51 14-42 21-22 12-28 16-17 10-21 13-22 14-33 22-3 3 26 11 33 15 44 22 14 8h3l15-29 11-22 13-29 13-32 7-19 11-32v-4zm-441 79 1 7 7 28 5 26 4 28 3 34 1 35 4-1 8-8 11-9 12-11 11-9 10-9 14-11 8-7 14-11 16-13 12-9 19-14 2-1v-2l-16-6-39-12-49-13-42-9zm190 7m548 8-37 9-41 11-53 16-45 15-31 11-29 11-45 18-24 10-8 3 5 5 15 10 17 12 16 12 14 11 11 9 14 12 26 24 15 15 14 16 4-1 10-11 9-11 13-14 9-11 12-14 22-28 13-17 14-19 11-16 16-24 15-24 14-25 7-14zm50 1-18 36-14 24-12 20-22 33-12 17-14 19-20 26-9 11-14 17-11 13-7 8-13 15 3 1 51-11 75-15 66-12 60-10 60-9 68-9 2-1-2-4-14-15-11-12-21-21-8-7-14-13-11-9-17-14-19-14-18-13-33-22-21-13-26-15zm-564 50-6 26-9 30-9 25-12 28-9 20 5-1 21-12 18-10 28-15 52-27 28-13-2-4-15-8-23-11-28-13-31-13-4-2zm-50 22-10 8-17 13-10 8-16 13-17 14-13 11-28 24-14 13-9 7v2l28 12 20 10 19 11 4-2 12-21 13-24 12-24 13-31 10-28 4-12zm214 60-10 17-26 42-26 39-15 22-13 18-10 14-14 19-10 13-14 18-5 7 9-2 51-16 55-16 61-17 65-17 55-14-2-4-12-13-7-7-2-3h-2l-1-3-8-7-14-14-11-9-10-9-14-11-21-16-19-13-27-18zm-63 18-17 8-19 10-23 12-28 15-50 28-28 17-12 7v2l8 7 10 10 13 17 9 15 7 15 5 13h3l28-36 28-38 13-18 11-16 13-19 21-32 9-14 1-3zm-310 71-2 5-7 28-10 29-7 17 5-2 9-7 11-7 14-10 35-23 6-4-1-3-22-11-30-12zm104 59-9 12-13 18-20 26-18 22-13 15-9 10-7 8-11 12-8 8-7 8-18 18 6-1 20-9 24-10 27-11 39-15 44-16 17-6v-13l-3-15-6-17-9-16-10-13-15-15zm-86 41-16 12-12 8-14 10-19 14-17 13-14 11-7 7-12 17-14 18-18 22-24 28-6 6v2l4-2 14-11 16-13 11-9 13-11 15-14 8-7 12-11 32-32 7-8 16-17 12-14 1-3h2l9-11 3-5zm384 13-39 11-55 16-30 9-7 2 4 3 31 14 80 35 28 12 10 4-1-13-8-48-9-43-1-2zm-176 66-5 40-8 50-7 37-9 41-9 36v2l5-1 21-12 29-16 24-14 26-15 21-13 20-12 19-12 25-16 24-16-1-3-64-28-28-12-69-31-10-4zm-45 2-36 12-52 19-33 13-6 3 1 5 9 24 13 27 13 22 12 17 13 16 9 10 6 7 8 7 8 8h2l13-54 9-45 7-40 7-48v-3zm-211 35m42 29-10 4-3 9-8 31-12 36-13 33-16 36-11 22-24 44-16 27-12 19-7 11-1 2 10-3 33-11 43-16 35-14 33-14 36-16 30-14 29-14 4-2-2-4-12-11-13-12-8-8-7-8-9-10-13-17-11-16-8-13-12-21-11-23-8-20-2-7zm-168 23m-1 1m-1 1m108 3-24 11-25 12-19 10-29 15-18 10-10 7-6 13-7 21-4 16-3 25v28l4 26 6 21 9 21 4 7 3-1 11-17 14-22 10-16 9-15 13-23 15-28 18-37 8-19 9-23 9-25 5-15v-2zm481 16-13 9-31 20-24 15-21 13-28 17-29 17-46 26-16 9-6 3v2l12 5 22 10 23 8 15 5 32 8 27 5 32 4 23 2 25 1 1-1 3-34 2-45v-52l-2-47zm-663 81-17 11-15 10-16 11-17 12-17 13-14 11-11 9-15 13-10 9-7 7-8 7-7 7-7 8-7 7-9 11-12 15-14 21-7 11-4 9 7 1h25l45-2 31-3 37-5 35-6 47-10 12-3-1-5-10-21-9-25-5-20-4-29v-32l3-26 2-16zm404 72-4 9-12 36-11 30-16 39-13 29-11 24-10 19-11 21-1 3 6-2 24-11 36-17 29-14 62-31 37-19 22-12 30-16 23-13 17-9v-2l-34-5-24-5-32-8-36-12-24-10-19-9-20-11-6-4zm-58 28-12 6-63 28-49 20-40 15-52 18-30 9v3l12 11 11 9 16 12 15 10 15 9 23 13 33 17 17 8 13 6h3l14-25 9-16 12-23 12-24 15-33 15-36 13-34v-3zm306 57-27 15-23 13-24 13-28 15-24 13-23 12-47 24-32 16-52 25-29 13-12 5 2 2 31 10 29 8 28 7 39 8 42 7 41 5 23 2 18 1h14l7-19 12-36 10-34 14-56 9-46 3-17v-6zm-647 64-28 6-47 8-39 5-36 3-18 1h-65l-2 2-2 11v31l5 21 6 16 8 15 12 17 9 10 7 8 9 9 11 9 14 11 4-1 16-17 6-6v-2h2l7-8 13-14 7-8 10-11 9-11 10-11 9-11 12-14 18-22 12-15 12-16 12-15zm56 0-13 18-13 17-10 13-11 14-13 16-9 11-14 17-13 15-9 11-12 13-7 8-12 13-9 10-5 6 1 2 44-5 44-8 37-9 34-9 49-15 41-14 40-15 14-5v-3l-16-8-27-14-23-13-21-13-19-13-18-14-11-10-8-7-9-9zm214 127-10 16-12 17-10 14-12 16-10 13-13 16-11 13-9 10-7 8-6 6v2l-3 1-7 8-9 9v1l13-1 54-9 47-9 54-12 55-14 41-12 49-16 30-11 12-4 1-2-13-3-43-7-48-10-36-9-44-13-35-12-16-6zm-74 27-19 7-43 15-48 15-48 13-40 9-38 7-40 5-3 2 8 4 29 13 33 13 34 12 31 10 21 6h6l15-14 8-7 12-11 14-14 7-8 10-10 9-11 9-10 18-22 14-18 3-4v-2zm373 52-15 7-30 13-42 16-47 16-41 12-53 14-53 12-50 10-36 6 1 2 32 6 48 7 50 6 60 5 54 3 34 1h16l5-5 17-28 15-27 15-29 12-25 8-18 1-4z" fill="#B41F1F"/>
<path transform="translate(1208,961)" d="m0 0 2 3 6 26 8 43 7 46 4 36 3 41 1 22v89l-2 34-3 36-5 40-7 45-9 44-10 42-12 42-17 52-17 45-12 28-18 39-17 34-13 23-12 21-12 19-13 19-5 5h-20l-46-1-59-3-38-3-40-4-33-4-49-7-41-7-44-9-52-12-33-9-40-12-41-14-33-13-30-13-37-18-23-13-24-15-17-12-16-13-8-7-10-9-18-18-11-14-9-13-8-14-7-14-8-24-3-16-1-7v-32l3-20 7-25 8-20 10-19 10-17 12-17 10-13 10-12 7-8 9-11 5-1 31-16 19-10 68-35 20-10 19-10 16-8 30-16 21-12 14-6h2l-2 6-6 16-6 22-3 19-1 10v28l4 26 6 21 9 21 3 6h2l11-17 14-22 10-16 9-15 13-23 15-28 18-37 8-19 9-23 9-25 5-15 4-4 25-12 14-6 7-2-2 11-8 30-12 36-12 30-16 36-11 22-24 44-16 27-12 19-7 11h3l38-13 43-16 35-14 33-14 36-16 30-14 29-14 3-1-2-4-10-9-15-14-8-8-7-8-9-10-13-17-11-16-8-13-12-21-11-23-8-20-2-8 29-12 10-4 11 29 13 27 13 22 12 17 13 16 9 10 5 6 8 7 8 8 2 1 1-9 11-45 9-45 7-40 7-48v-4l43-14 37-12 5-1h7l31 14 80 35 28 12 9 4-1-12-8-48-9-43v-2l32-9zm-219 77-5 40-8 50-7 37-9 41-9 36v2l5-1 21-12 29-16 24-14 26-15 21-13 20-12 19-12 25-16 24-16-1-3-64-28-28-12-69-31-10-4zm205 110-13 9-31 20-24 15-21 13-28 17-29 17-46 26-16 9-6 3v2l12 5 22 10 23 8 15 5 32 8 27 5 32 4 23 2 25 1 1-1 3-34 2-45v-52l-2-47zm-663 81-17 11-15 10-16 11-17 12-17 13-14 11-11 9-15 13-10 9-7 7-8 7-7 7-7 8-7 7-9 11-12 15-14 21-7 11-4 9 7 1h25l45-2 31-3 37-5 35-6 47-10 12-3-1-5-10-21-9-25-5-20-4-29v-32l3-26 2-16zm404 72-4 9-12 36-11 30-16 39-13 29-11 24-10 19-11 21-1 3 6-2 24-11 36-17 29-14 62-31 37-19 22-12 30-16 23-13 17-9v-2l-34-5-24-5-32-8-36-12-24-10-19-9-20-11-6-4zm-58 28-12 6-63 28-49 20-40 15-52 18-30 9v3l12 11 11 9 16 12 15 10 15 9 23 13 33 17 17 8 13 6h3l14-25 9-16 12-23 12-24 15-33 15-36 13-34v-3zm306 57-27 15-23 13-24 13-28 15-24 13-23 12-47 24-32 16-52 25-29 13-12 5 2 2 31 10 29 8 28 7 39 8 42 7 41 5 23 2 18 1h14l7-19 12-36 10-34 14-56 9-46 3-17v-6zm-647 64-28 6-47 8-39 5-36 3-18 1h-65l-2 2-2 11v31l5 21 6 16 8 15 12 17 9 10 7 8 9 9 11 9 14 11 4-1 16-17 6-6v-2h2l7-8 13-14 7-8 10-11 9-11 10-11 9-11 12-14 18-22 12-15 12-16 12-15zm56 0-13 18-13 17-10 13-11 14-13 16-9 11-14 17-13 15-9 11-12 13-7 8-12 13-9 10-5 6 1 2 44-5 44-8 37-9 34-9 49-15 41-14 40-15 14-5v-3l-16-8-27-14-23-13-21-13-19-13-18-14-11-10-8-7-9-9zm214 127-10 16-12 17-10 14-12 16-10 13-13 16-11 13-9 10-7 8-6 6v2l-3 1-7 8-9 9v1l13-1 54-9 47-9 54-12 55-14 41-12 49-16 30-11 12-4 1-2-13-3-43-7-48-10-36-9-44-13-35-12-16-6zm-74 27-19 7-43 15-48 15-48 13-40 9-38 7-40 5-3 2 8 4 29 13 33 13 34 12 31 10 21 6h6l15-14 8-7 12-11 14-14 7-8 10-10 9-11 9-10 18-22 14-18 3-4v-2zm373 52-15 7-30 13-42 16-47 16-41 12-53 14-53 12-50 10-36 6 1 2 32 6 48 7 50 6 60 5 54 3 34 1h16l5-5 17-28 15-27 15-29 12-25 8-18 1-4z" fill="#D0D8DC"/>
<path transform="translate(934,128)" d="m0 0 5 1v23l2 40 4 38 6 38 7 34 9 35 12 36 10 25 14 29 9 16 2 3-12-1-35-5-7-2-8-15-13-32-11-32-1-8-5 3-8 8-11 9-14 12-19 14-15 10-13 8-6 2 1 3-30-4-40-7-36-6-29-6-8-7-12-14-9-11-12-15-11-14-16-21-13-18-12-17-3-1-14 8-17 13-10 9-7 10-3 8v11l4 6 5 6-5-2-14-12-16-16-10-13v-2l-2-1 9-14 9-11 11-11 17-13 15-10 21-12 28-14 28-12 26-10 34-12 37-12 52-15 64-16 41-9zm-42 52-47 11-38 10-41 12-32 10-42 15-18 7 3 2 49 10 63 12 78 14 41 7h3l-1-8-7-43-4-36-2-23zm-224 108 3 5 20 26 14 17 8 10 12 14 10 11 7 8 9 10 14 14 5 3 16-8 25-14 21-13 20-14 14-11 16-13 3-4-9-2-66-12-34-6-72-14-32-7z" fill="#D0D8DC"/>
</svg>
